<?xml version="1.0" encoding="utf-8" ?>
<svg xmlns="http://www.w3.org/2000/svg" xmlns:xlink="http://www.w3.org/1999/xlink" width="268" height="278">
	<path fill="#FDFEFC" transform="matrix(1.00442 0 0 1.0057 -382.014 -300.7)" d="M387.674 383.794C393.675 367.689 402.946 353.327 415.069 341.102C430.718 325.321 454.256 313.277 476.331 310.193C481.509 309.469 487.014 309.667 492.239 309.667L640.008 309.893L639.633 429.916L639.542 461.755C639.532 468.605 639.99 475.733 638.866 482.5C634.461 509.025 622.12 534.559 599.947 550.731C586.657 560.424 571.657 567.185 555.451 570.191C548.239 571.529 540.737 571.137 533.421 571.151L502.836 571.147L382.891 571.468L382.932 502.966L382.907 488.081L382.977 460.854L382.953 449.044L382.983 421.722C382.964 417.662 382.515 413.08 383.24 409.097C384.344 400.363 385.328 392.32 387.674 383.794Z"/>
	<path fill="#085E64" transform="matrix(1.00442 0 0 1.0057 -382.014 -300.7)" d="M382.907 488.081L439.677 487.756L430.197 497.471C428.092 499.588 426.047 501.922 423.459 503.45L382.932 502.966L382.907 488.081Z"/>
	<path fill="#7FDF08" transform="matrix(1.00442 0 0 1.0057 -382.014 -300.7)" d="M382.977 460.854L467.259 460.94L447.981 479.683C445.348 482.3 442.648 485.56 439.677 487.756L382.907 488.081L382.977 460.854Z"/>
	<defs>
		<linearGradient id="gradient_0" gradientUnits="userSpaceOnUse" x1="452.548" y1="457.79922" x2="431.11838" y2="403.80078">
			<stop offset="0" stop-color="#A9F204"/>
			<stop offset="1" stop-color="#D9EF14"/>
		</linearGradient>
	</defs>
	<path fill="url(#gradient_0)" transform="matrix(1.00442 0 0 1.0057 -382.014 -300.7)" d="M382.983 421.722L506.891 421.657L488.672 439.551C485.532 442.674 482.42 446.385 478.966 449.133L467.259 460.94L382.977 460.854L382.953 449.044L382.983 421.722Z"/>
	<path fill="#13813F" transform="matrix(1.00442 0 0 1.0057 -382.014 -300.7)" d="M382.953 449.044L478.966 449.133L467.259 460.94L382.977 460.854L382.953 449.044Z"/>
	<path fill="#7FDF08" transform="matrix(1.00442 0 0 1.0057 -382.014 -300.7)" d="M429.496 383.679C439.888 365.85 454.593 354.683 474.495 349.362C484.835 346.598 495.787 347.43 506.388 347.445L556.995 347.498C565.393 347.486 574.324 348.076 582.654 347.109L559.194 369.573L550.397 378.367C548.837 379.918 547.018 382.024 545.159 383.158L429.496 383.679Z"/>
	<path fill="#DAF011" transform="matrix(1.00442 0 0 1.0057 -382.014 -300.7)" d="M429.496 383.679L545.159 383.158L519.616 408.684L506.891 421.657L382.983 421.722C382.964 417.662 382.515 413.08 383.24 409.097C384.344 400.363 385.328 392.32 387.674 383.794C393.592 383.903 426.677 385.08 429.496 383.679Z"/>
	<path fill="#7FDF08" transform="matrix(1.00442 0 0 1.0057 -382.014 -300.7)" d="M382.983 421.722C382.964 417.662 382.515 413.08 383.24 409.097L384 410.03L519.616 408.684L506.891 421.657L382.983 421.722Z"/>
	<path fill="#074D77" transform="matrix(1.00442 0 0 1.0057 -382.014 -300.7)" d="M600.555 382.046L600.524 451.649L600.522 470.125C600.524 474.144 600.781 478.371 599.788 482.29C596.555 495.048 591.349 505.93 581.946 515.431C573.882 523.578 561.867 529.405 550.674 531.757C544.734 533.005 538.665 532.928 532.628 532.927L511.232 532.873L449.693 532.942C452.467 529.049 457.088 525.333 460.516 521.898L488.139 494.377L600.555 382.046Z"/>
</svg>
